# xmcd
#
# Track frame offsets:
#	150
#	15343
#	30597
#	152881
#	189905
#	243561
#
# Disc length: 3946 seconds
#
# Revision: 1
# Processed by: cddbd v1.5.2PL0 Copyright (c) Steve Scherf et al.
# Submitted via: audiograbber 1.83.01
#
DISCID=3c0f6806
DTITLE=Grateful Dead - 73-03-16 Nassau Veterans Memorial Coliseum, Uniondale NY
DYEAR=1900
DGENRE=
TTITLE0=Don't Ease Me In
TTITLE1=Me and My Uncle
TTITLE2=Dark Star
TTITLE3=Truckin'
TTITLE4=Morning Dew
TTITLE5=Sugar Magnolia
EXTD=
EXTT0=
EXTT1=
EXTT2=
EXTT3=
EXTT4=
EXTT5=
PLAYORDER=
